<?xml version="1.0" standalone="no"?>
<!DOCTYPE svg PUBLIC "-//W3C//DTD SVG 1.1//EN" "http://www.w3.org/Graphics/SVG/1.1/DTD/svg11.dtd" >
<svg xmlns="http://www.w3.org/2000/svg">
<metadata>
Created by FontForge 20120731 at Tue Jul 11 09:58:01 2017
 By admin
</metadata>
<defs>
<font id="iconfont" horiz-adv-x="1024" >
  <font-face 
    font-family="iconfont"
    font-weight="500"
    font-stretch="normal"
    units-per-em="1024"
    panose-1="2 0 6 3 0 0 0 0 0 0"
    ascent="896"
    descent="-128"
    x-height="792"
    bbox="0 -212 1229 896"
    underline-thickness="0"
    underline-position="0"
    unicode-range="U+0078-F000B"
  />
<missing-glyph 
 />
    <glyph glyph-name=".notdef" 
 />
    <glyph glyph-name=".null" horiz-adv-x="0" 
 />
    <glyph glyph-name="nonmarkingreturn" horiz-adv-x="341" 
 />
    <glyph glyph-name="x" unicode="x" horiz-adv-x="1001" 
d="M281 543q-27 -1 -53 -1h-83q-18 0 -36.5 -6t-32.5 -18.5t-23 -32t-9 -45.5v-76h912v41q0 16 -0.5 30t-0.5 18q0 13 -5 29t-17 29.5t-31.5 22.5t-49.5 9h-133v-97h-438v97zM955 310v-52q0 -23 0.5 -52t0.5 -58t-10.5 -47.5t-26 -30t-33 -16t-31.5 -4.5q-14 -1 -29.5 -0.5
t-29.5 0.5h-32l-45 128h-439l-44 -128h-29h-34q-20 0 -45 1q-25 0 -41 9.5t-25.5 23t-13.5 29.5t-4 30v167h911zM163 247q-12 0 -21 -8.5t-9 -21.5t9 -21.5t21 -8.5q13 0 22 8.5t9 21.5t-9 21.5t-22 8.5zM316 123q-8 -26 -14 -48q-5 -19 -10.5 -37t-7.5 -25t-3 -15t1 -14.5
t9.5 -10.5t21.5 -4h37h67h81h80h64h36q23 0 34 12t2 38q-5 13 -9.5 30.5t-9.5 34.5q-5 19 -11 39h-368zM336 498v228q0 11 2.5 23t10 21.5t20.5 15.5t34 6h188q31 0 51.5 -14.5t20.5 -52.5v-227h-327z" />
    <glyph glyph-name="fenxiang" unicode="&#xf000b;" 
d="M806 524q63 0 108 45.5t45 109t-45 108.5t-108.5 45t-108.5 -45t-45 -109q0 -10 1 -22l-324 -124q-45 48 -111 48q-64 0 -109 -45t-45 -108.5t45 -109t109 -45.5q48 0 88 29l220 -147q-14 -30 -14 -64q0 -63 45 -108.5t108.5 -45.5t109 45.5t45.5 109t-45.5 108.5
t-108.5 45t-108 -44l-212 142q26 38 26 84q0 30 -12 57l311 120q20 -36 56 -57.5t79 -21.5zM217.5 328q-40.5 0 -69 29t-28.5 69.5t28.5 69t69 28.5t69.5 -28.5t29 -69t-29 -69.5t-69.5 -29zM665.5 188q40.5 0 69.5 -28.5t29 -69t-29 -69.5t-69.5 -29t-69 29t-28.5 69.5
t28.5 69t69 28.5zM805.5 776q40.5 0 69 -28.5t28.5 -69t-28.5 -69.5t-69 -29t-69 29t-28.5 69.5t28.5 69t69 28.5z" />
    <glyph glyph-name="home" unicode="&#xe7a4;" 
d="M512 769l-469 -469l31 -31l97 97v-438h682v438l97 -97l31 31zM427 -30v299h170v-299h-170zM811 -30h-171v342h-256v-342h-171v438l299 299l299 -299v-438z" />
    <glyph glyph-name="mianshi" unicode="&#xe65b;" 
d="M524 182q-75 0 -128 53t-53 128t53 128t128 53t128 -53t53 -128t-53 -128t-128 -53zM524 509q-60 0 -103 -42.5t-43 -103t43 -103t103 -42.5t103 42.5t43 103t-43 103t-103 42.5zM777 -71q-7 0 -12.5 5t-5.5 13q0 97 -69 166t-166.5 69t-166.5 -69t-69 -166q0 -8 -5 -13
t-12.5 -5t-12.5 5t-5 13q0 112 79.5 191t191.5 79t191.5 -79t79.5 -191q0 -8 -5.5 -13t-12.5 -5zM441 554zM61 17q-7 0 -12.5 5.5t-5.5 12.5q0 88 52 159t134 98q-44 23 -70 66t-26 94q0 74 53 127.5t128 53.5q86 0 141 -67q4 -6 3.5 -13.5t-6.5 -12t-13 -3.5t-12 6
q-43 54 -113 54q-60 0 -103 -42.5t-43 -103t43 -103t103 -42.5q7 0 12.5 -5.5t5.5 -12.5t-5.5 -12.5t-12.5 -5.5q-97 0 -166 -69t-69 -166q0 -7 -5.5 -12.5t-12.5 -5.5zM750 220q-4 0 -8 2q-12 5 -10 18l11 76h-1v0q-7 0 -12 5.5t-5 12.5t5 12.5t12 5.5h21v0q8 0 13.5 -6
t4.5 -14l-6 -43l56 58q5 5 13 5h101v284h-413v-54q0 -7 -5 -12t-12.5 -5t-12.5 5t-5 12v71q0 8 5 13t13 5h448q7 0 12.5 -5t5.5 -13v-318q0 -8 -5.5 -13t-12.5 -5h-112l-89 -92q-5 -5 -12 -5z" />
    <glyph glyph-name="guanyu" unicode="&#xe685;" 
d="M512 460q-13 0 -22.5 -9.5t-9.5 -22.5v-384q0 -13 9.5 -22.5t22.5 -9.5t22.5 9.5t9.5 22.5v384q0 13 -9.5 22.5t-22.5 9.5zM512 556zM480 556q0 13 9.5 22.5t22.5 9.5t22.5 -9.5t9.5 -22.5t-9.5 -22.5t-22.5 -9.5t-22.5 9.5t-9.5 22.5zM512 780q-98 0 -186.5 -38
t-153 -102.5t-102.5 -153t-38 -186.5t38 -186.5t102.5 -153t153 -102.5t186.5 -38t186.5 38t153 102.5t102.5 153t38 186.5t-38 186.5t-102.5 153t-153 102.5t-186.5 38zM512 -116q-172 0 -294 122t-122 294t122 294t294 122t294 -122t122 -294t-122 -294t-294 -122z" />
    <glyph glyph-name="touxiang" unicode="&#xe64f;" 
d="M512 812q-104 0 -199 -40.5t-163.5 -109t-109 -163.5t-40.5 -199t40.5 -199t109 -163.5t163.5 -109t199 -40.5t199 40.5t163.5 109t109 163.5t40.5 199t-40.5 199t-109 163.5t-163.5 109t-199 40.5zM523 660q40 0 71.5 -9t51.5 -22t34.5 -35t21.5 -39t10.5 -44.5t4 -42.5
t0.5 -40q0 -32 -14.5 -72t-38.5 -77.5t-61.5 -63t-79 -25.5t-79 25.5t-62 62.5t-39 77.5t-14.5 72.5q0 25 0.5 40t4.5 42.5t10.5 44.5t21 39t34.5 35t51.5 22t71.5 9zM512 -184q-109 0 -205.5 46t-163.5 126q22 62 51 85q22 17 70 42.5t85.5 43t37.5 16.5l90 -171l16 42
l-25 51l51 51l50 -51l-25 -51l14 -41l92 170q143 -64 193 -102q29 -23 49 -72q-67 -86 -166.5 -135.5t-213.5 -49.5z" />
    <glyph glyph-name="qq" unicode="&#xe65d;" 
d="M265 329l-2 4v5l-1 3v4v4v4l1 5l1 5l2 5l2 6l3 5l4 6v4l1 4l1 6l1 6l2 6l1 3l2 3l2 3l2 2v4v5v6l1 8l1 8l3 11l2 11l3 6l2 7l2 5l4 7l3 7l3 7l4 7l5 7l2 5l3 3l5 7l5 8l6 8l7 7l7 8l8 7l9 9l6 5l7 6l7 4l7 5l8 4l8 3l9 4l8 3l9 3l10 3l9 2l10 2l10 2l10 1l10 2h10h10h11
h11l10 -1l11 -1l10 -2l10 -2l11 -2l10 -3l10 -2l10 -4l9 -4l11 -4l9 -5l9 -5l9 -5l7 -6l4 -3l3 -2l7 -6l6 -6l6 -5l6 -7l5 -6l5 -7l4 -7l4 -6l4 -8l4 -6l6 -13l3 -7l2 -7l2 -7l2 -6l2 -6l1 -7l4 -11l2 -11l1 -10l1 -8l2 -12v-2l2 -2l4 -7l2 -4l2 -4l3 -6l3 -5l1 -6l2 -6
l2 -7v-3l1 -4v-4l-1 -3v-5l-1 -4l-2 -8l-2 -4l-2 -5v-1l1 -1l2 -4l10 -13l7 -10l3 -7l5 -8l4 -8l5 -9l4 -10l6 -11l3 -7l3 -6l2 -7l2 -7l2 -7l2 -6l2 -12l2 -12l1 -11v-7v-4v-5v-5l-2 -10l-2 -9l-2 -7l-1 -4l-2 -3l-1 -3l-2 -3l-2 -3l-2 -2l-2 -2l-2 -2l-3 -1l-2 -1l-2 -1
h-1h-2l-1 1l-4 1l-2 2l-1 1l-2 1l-2 2l-3 4l-4 4l-3 5l-2 4l-3 5l-4 8l-5 9v0h-1l-1 -1l-2 -3l-1 -2l-3 -9l-5 -11l-6 -15l-4 -7l-5 -7l-5 -9l-6 -7l-3 -4l-3 -4l-9 -8l1 -1l1 -1l5 -2l17 -9l7 -4l7 -4l7 -5l7 -6l2 -2l3 -3l2 -3l2 -3l1 -3l1 -3l1 -4v-3v-2v-3l-1 -2l-1 -2
v-2l-1 -2l-4 -5l-3 -3l-2 -2l-2 -2l-4 -4l-6 -3l-5 -3l-6 -2l-7 -3l-4 -1l-3 -1l-8 -2l-8 -2l-8 -1l-9 -2h-10l-9 -2h-9h-10h-10l-11 1l-10 1l-11 2l-10 1l-11 1l-11 3l-10 2l-11 3l-10 4l-11 3l-5 2l-5 2l-3 1h-3h-4h-5l-10 1l-5 1h-7l-4 -3l-6 -4l-8 -4l-8 -5l-6 -2l-5 -2
l-12 -5l-7 -2l-7 -2l-9 -2h-6h-6l-7 -1l-7 -1h-8h-7h-17l-18 1l-17 1l-8 2l-9 1l-8 1l-8 2l-8 2l-7 2l-7 3l-7 2l-6 3l-5 3l-5 4l-2 2l-2 2l-2 2l-2 2l-1 3l-1 2l-2 5l-1 2v3v2v4v2l1 3v2v4v3l2 3l1 4l2 4l1 2l2 2l3 4l2 2l3 1l2 2l4 1l3 2l3 2l4 1l4 1l5 1l5 1h5l6 1h1v0
l1 1v1l-1 1l-3 2l-7 6l-6 4l-6 6l-6 5l-6 8l-7 8l-3 5l-3 5l-3 5l-3 6l-4 6l-2 6l-3 7l-3 7l-2 7l-2 8h-1v0l-1 1v0l-2 -1v0l-1 -2l-1 -1v-2l-1 -2l-4 -7l-2 -3l-2 -4l-3 -4l-4 -4l-3 -4l-5 -4l-4 -3l-4 -3l-4 -3l-5 -2l-6 -1l-5 -1v0h-1l-1 1l-1 2l-2 1l-2 5l-1 3l-1 3
l-1 4l-1 4l-1 9l-1 5v6v12l1 12v7l2 7l1 7l2 7l2 7l2 8l3 8l3 7l4 8l4 8l5 8l5 8l5 7l6 9l5 6l6 6l6 7l3 3l4 4l5 4l5 5l9 8l7 4z" />
    <glyph glyph-name="zhuye" unicode="&#xe60e;" 
d="M875 300v-512h-257v342h-214v-342h-256v513h-147l510 511l512 -512h-148zM103 344h45v0h42v-513h172v342h299v-342h171v513h43v0h44l-408 408z" />
    <glyph glyph-name="java" unicode="&#xe60a;" 
d="M745 714q-8 -6 -27 -18.5t-33.5 -23t-28.5 -22.5q-4 -2 -16.5 -11.5t-18.5 -15.5l-15.5 -15.5t-14 -19.5t-5.5 -20q-1 -17 10.5 -40t23 -41t15.5 -44t-13 -49q-8 -12 -22.5 -22.5t-23.5 -15t-36 -16.5q-2 4 0.5 7.5t8 8.5t7.5 7q16 27 15.5 43.5t-11 36t-23 35.5t-21 41
t-4.5 52q17 115 233 143zM389 381q-8 -4 -28.5 -9.5t-36.5 -12.5t-24 -19q4 -3 8.5 -5t10 -3.5t9.5 -2.5t12 -2t11 -1t12 -0.5t11 -0.5q174 -8 335 20q3 -6 -23 -25q-40 -30 -149.5 -41.5t-213.5 -4.5q-20 1 -40 4t-44 8.5t-39 15.5t-16 23q0 10 7 18t21.5 13.5t28 9.5
t34.5 6.5t32.5 3.5t30.5 2q7 1 10 1q38 3 41 2zM335 266q6 -2 4 -3.5t-6 -6t-3 -8.5q21 -20 70 -26.5t94 -3t85 11.5q5 1 18.5 6t19.5 4q14 -1 34 -17.5t30 -17.5q-60 -27 -157 -36.5t-181 5.5q-28 5 -53 16.5t-26 26.5q-3 34 71 49zM369 161q3 -2 2.5 -3t-3 -3.5t-2.5 -3.5
q11 -19 49 -24t75.5 -1t72.5 12q4 1 16 6t18 4q16 -1 35.5 -18.5t30.5 -19.5q-66 -40 -180.5 -46t-180.5 38q0 7 0.5 13t1.5 10t4.5 8.5t5.5 7t8 5.5t7.5 4t9.5 3.5t9.5 3t10.5 2.5t10 2zM294 84q-5 -1 -31 -2.5t-41.5 -7.5t-16.5 -20q-1 -9 11 -19t25 -15q60 -23 173.5 -28
t215.5 8q30 3 56.5 8.5t57 16t45.5 28.5t10 42q15 -2 26 -11t12 -23q3 -25 -20.5 -45t-62.5 -32.5t-72.5 -19.5t-64.5 -10q-102 -14 -227 -8t-203 33q-79 28 -77 69q2 27 38.5 43t80.5 14t65 -21zM512 -128q-176 19 -266 59q105 -25 224 -30t235 17t184 72q1 1 6.5 6
t9.5 7.5t9 1.5q-6 -19 -18.5 -35.5t-25 -28t-34 -21t-36.5 -15t-43.5 -11.5t-43 -8.5t-47 -7t-44.5 -6.5h-110zM579 888q30 -29 30 -82q0 -34 -18 -67.5t-40 -55.5t-52.5 -51.5t-45.5 -47.5q-26 -35 -25 -62q0 -24 14 -52.5t35 -60t27 -46.5q-74 49 -110 93q-17 20 -28 43
t-15.5 52t10.5 53q14 26 45 53.5t60.5 48t61 49.5t46.5 56q23 44 5 77zM730 356q26 22 59.5 24.5t59 -17.5t27.5 -56q2 -42 -25 -75t-64 -49.5t-75 -18.5q6 6 24 20.5t31 26.5t27 29.5t19.5 37t0.5 39.5q-5 22 -29.5 33.5t-54.5 5.5z" />
    <glyph glyph-name="iconfontshu" unicode="&#xe6a2;" 
d="M671 78q-42 0 -85 -12t-51 -34v-1h-46q-8 22 -51 34t-85 12h-251v660h273q43 0 79.5 -20.5t57.5 -54.5q21 34 57.5 54.5t79.5 20.5h273v-659h-251zM489 600q0 39 -34.5 65t-79.5 26h-227v-569h205q115 2 136 -33v25q-1 37 0 77v395v0v14zM876 691h-227q-45 0 -79.5 -26
t-34.5 -65v-14v0v-395q1 -39 0 -76v-26q21 36 136 34h205v568z" />
    <glyph glyph-name="mianshianpai" unicode="&#xe6a5;" horiz-adv-x="1229" 
d="M617 237q-108 0 -184 76t-76 183.5t76 183.5t183.5 76t183.5 -76t76 -183.5t-76 -183.5t-183 -76v0zM617 684q-78 0 -133 -55t-55 -132.5t55 -132.5t132.5 -55t132.5 55t55 132.5t-55 132.5t-132 55v0zM970 -93q-13 0 -23 8.5t-13 21.5q-7 48 -21 87.5t-31 66.5
t-38.5 48.5t-41 34t-42 21t-39 12t-33.5 5t-23 1t-11 -0.5q-4 -1 -8 0q-106 13 -177 -44q-27 -21 -48.5 -53t-33 -59.5t-19.5 -57.5t-9.5 -41.5t-2.5 -17.5q-2 -15 -13.5 -24.5t-26 -7.5t-24 13.5t-8.5 25.5q1 9 3.5 23.5t12 50t23.5 68t40.5 71t60.5 65.5q93 75 227 60
q14 1 30 0t48.5 -7t62 -17.5t65 -36.5t63.5 -59.5t51.5 -90t34.5 -125.5q2 -14 -7 -26t-23 -15h-6v0zM37 11h-3q-15 1 -24.5 12.5t-7.5 26.5q18 203 139 303q45 37 102 57q-62 39 -87 98q-13 30 -14.5 65.5t3.5 61t15.5 52.5t15 35.5t8.5 15.5q60 83 148 93q33 4 69 -3.5
t61.5 -19t52 -27.5t34.5 -22.5t15 -12.5q11 -10 12 -24.5t-9 -26t-25 -12.5t-26 9q-2 2 -10.5 8.5t-27.5 18.5t-39.5 21.5t-47.5 15.5t-51 4q-56 -7 -96 -62v0v-1q-42 -73 -29 -137q2 -13 7 -24q33 -76 171 -106q14 -3 22 -15t5.5 -26t-13.5 -23t-26 -7q-2 0 -12 0.5t-32 -2
t-45 -8t-52.5 -19t-53.5 -34.5q-97 -80 -113 -253q-1 -14 -11.5 -23t-24.5 -9v0zM929 301q-11 0 -19 6q-23 14 -16 40l22 76l-1 1q-15 3 -23 15.5t-5 27t15.5 22.5t27.5 5l39 -8q16 -4 24 -17q6 -10 5 -22l40 36q10 9 24 9h94v332h-500v-75q0 -14 -10.5 -25t-25.5 -11
t-25.5 11t-10.5 25v111q0 15 10.5 25.5t25.5 10.5h572q15 0 26 -10.5t11 -25.5v-404q0 -15 -11 -25.5t-26 -10.5h-116l-123 -110q-10 -9 -24 -9v0z" />
    <glyph glyph-name="liulan" unicode="&#xe622;" 
d="M188 358q13 94 107.5 158t222.5 64t222 -64t107 -158h40q-13 109 -119 184t-250.5 75t-250.5 -75t-119 -184h40zM848 358q-11 -95 -106 -160.5t-224.5 -65.5t-224.5 65.5t-106 160.5h-39q11 -110 117.5 -186t252 -76t252 76t117.5 186h-39zM520.5 515q-62.5 0 -106.5 -44
t-44 -106.5t44 -106.5t106.5 -44t106.5 44t44 106.5t-44 106.5t-106.5 44zM521.5 254q-46.5 0 -79.5 33t-33 79.5t33 79t79.5 32.5t79.5 -32.5t33 -79t-33 -79.5t-79.5 -33z" />
    <glyph glyph-name="552cd14718c49" unicode="&#xe65e;" 
d="M187 825q29 0 49 -19.5t20 -47.5v-52q0 -29 -20 -49t-49 -20h-54q-28 0 -47.5 20t-19.5 49v52q0 28 19.5 47.5t47.5 19.5h54zM890 825q28 0 47.5 -19.5t19.5 -47.5v-52q0 -29 -19.5 -49t-47.5 -20h-437q-29 0 -49 20t-20 49v52q0 28 20 47.5t49 19.5h437zM187 507
q29 0 49 -20t20 -49v-52q0 -28 -20 -48t-49 -20h-54q-28 0 -47.5 20t-19.5 48v52q0 29 19.5 49t47.5 20h54zM890 507q28 0 47.5 -20t19.5 -49v-52q0 -28 -19.5 -48t-47.5 -20h-437q-29 0 -49 20t-20 48v52q0 29 20 49t49 20h437zM187 187q29 0 49 -20t20 -47v-52
q0 -29 -20 -49t-49 -20h-54q-28 0 -47.5 20t-19.5 49v52q0 27 19.5 47t47.5 20h54zM890 187q28 0 47.5 -20t19.5 -47v-52q0 -29 -19.5 -49t-47.5 -20h-437q-29 0 -49 20t-20 49v52q0 27 20 47t49 20h437z" />
    <glyph glyph-name="touxiang1" unicode="&#xe659;" 
d="M960 384q0 91 -35.5 174t-95.5 143t-143 95.5t-174 35.5t-174 -35.5t-143 -95.5t-95.5 -143t-35.5 -174q0 -94 37.5 -178.5t103.5 -147.5v0l11 -10q1 -1 2.5 -2t2.5 -2q13 -11 24 -20q1 0 2.5 -1l3 -2t2.5 -2l27 -18q1 -1 2.5 -1.5t2.5 -1.5q16 -9 31 -16q0 -1 0.5 -1
h0.5q16 -8 35 -15q1 -1 2 -1h1q16 -7 35 -12q1 0 2 -0.5t2 -0.5q17 -5 35 -8q2 0 5 -1q19 -3 36 -5h2h2q20 -2 38 -2t38 2h1.5h2.5q17 2 36 5l4 1q19 3 37 8l3 1q18 5 35 12l2 1q19 7 36 15h1q15 8 32 17q0 1 1.5 1.5t1.5 1.5q14 8 29 19l6 4q13 9 25 20q1 1 2.5 2t2.5 2
l11 10v0q66 63 103.5 147t37.5 179v0zM109 385q0 109 54 202t147 147t202 54t202 -54t147 -147t54 -202q0 -85 -33.5 -160.5t-93.5 -131.5q-35 33 -124 58q-28 12 -34 17l-6 7q-15 14 -17 28v47q21 25 38 79q10 4 19.5 16t12.5 27q7 33 -6 49q17 64 14.5 116.5t-24.5 81.5
q-23 31 -64 31q-2 2 -6 7q-9 12 -23 18t-47 6h-5q-88 0 -131 -52q-55 -67 -31 -210q-11 -16 -5 -46q5 -30 28 -42q19 -55 41 -80q1 -44 0 -51q-2 -13 -15 -26q-10 -10 -40 -22q-92 -25 -127 -59q-60 56 -93.5 131.5t-33.5 160.5v0z" />
    <glyph glyph-name="pinglunguanli" unicode="&#xe636;" 
d="M884 43h-279l-199 -150q-8 -6 -18 -6q-8 0 -14 4q-17 9 -17 28l3 115l-62 8q-42 0 -69 32t-27 77v405q0 45 27 76t69 31h586q45 0 84.5 -38t39.5 -82v-401q0 -43 -38.5 -71t-85.5 -28zM947 543q0 18 -22 38t-41 20h-586q-18 0 -28 -13t-10 -32v-405q0 -19 10.5 -33
t27.5 -14l94 -9q13 0 22 -9t8 -22l-2 -85l152 111q5 3 17 9t16 6h279q22 0 42.5 10t20.5 27v401zM791.5 291q-25.5 0 -44 18t-18.5 44t18.5 44t44 18t43.5 -18t18 -44t-18 -44t-43.5 -18zM605 291q-26 0 -44 18t-18 44t18 44t44 18t44 -18t18 -44t-18 -44t-44 -18zM419 291
q-26 0 -44 18t-18 44t18 44t44 18t44 -18t18 -44t-18 -44t-44 -18zM810 727q-13 0 -22 9t-9 22v17q0 18 -15.5 31t-34.5 13h-613q-19 0 -29 -12t-10 -32v-402q0 -20 10 -30q10 -8 10 -21t-9 -22q-9 -11 -24 -11q-8 0 -17 8q-31 28 -31 76v402q0 45 28 75.5t72 30.5h613
q44 0 77.5 -31t33.5 -75v-17q0 -13 -8.5 -22t-21.5 -9z" />
    <glyph glyph-name="riqi" unicode="&#xe625;" 
d="M846 514h-668q-7 0 -12 5t-5 12.5t5 12.5t12 5h668q7 0 12 -5t5 -12.5t-5 -12.5t-12 -5zM810 6h-596q-27 0 -46 20.5t-19 49.5v553q0 29 19 49.5t46 20.5h47q7 0 12 -5t5 -12.5t-5 -12.5t-12 -5h-47q-12 0 -21 -10.5t-9 -24.5v-553q0 -15 9 -25.5t21 -10.5h596
q12 0 21 10.5t9 25.5v553q0 14 -9 24.5t-21 10.5h-47q-7 0 -12 5t-5 12.5t5 12.5t12 5h47q27 0 46 -20.5t19 -49.5v-553q0 -29 -19 -49.5t-46 -20.5zM330 627q-7 0 -12.5 5t-5.5 12v101q0 7 5.5 12t12.5 5t12 -5t5 -12v-101q0 -7 -5 -12t-12 -5zM451 627q-7 0 -12 5t-5 12
v101q0 7 5 12t12 5t12.5 -5t5.5 -12v-101q0 -7 -5.5 -12t-12.5 -5zM573 627q-7 0 -12.5 5t-5.5 12v101q0 7 5.5 12t12.5 5t12 -5t5 -12v-101q0 -7 -5 -12t-12 -5zM694 627q-7 0 -12 5t-5 12v101q0 7 5 12t12 5t12.5 -5t5.5 -12v-101q0 -7 -5.5 -12t-12.5 -5zM295 131v25
l33 32q64 61 89 94.5t26 66.5q0 27 -14.5 43.5t-46.5 16.5q-35 0 -66 -26l-13 30q37 31 87 31q47 0 70.5 -26.5t23.5 -62.5q0 -40 -25 -76t-81 -90l-24 -23v-1h138v-34h-197v0zM722 404h-117l-12 -79q14 2 25 2q39 0 67 -17q44 -25 44 -79q0 -46 -32.5 -75.5t-82.5 -29.5
q-47 0 -77 19l11 31q28 -17 65 -17q31 0 52 18.5t21 48.5q0 31 -22 49.5t-66 18.5q-17 0 -43 -3l20 148h147v-35z" />
    <glyph glyph-name="xihuan5" unicode="&#xe827;" 
d="M510.5 829q-90.5 0 -173 -35t-142 -94.5t-94.5 -142t-35 -173t35 -172.5t94.5 -141.5t142 -94.5t173 -35t172.5 35t141.5 94.5t95 141.5t35.5 172.5t-35.5 173t-95 142t-141.5 94.5t-172.5 35zM510.5 -31q-112.5 0 -208.5 56t-151.5 151.5t-55.5 208.5t55.5 208.5
t151.5 151t208.5 55.5t208.5 -55.5t151.5 -151t55.5 -208.5t-55.5 -208.5t-151.5 -151.5t-208.5 -56zM634 582q-69 0 -124 -61q-52 61 -123 61q-53 0 -88 -36t-35 -85q0 -38 31 -82l192 -214q16 -14 23.5 -14t23.5 14l192 214q31 38 31 82q0 49 -35 85t-88 36z" />
    <glyph glyph-name="weibo" unicode="&#xe6e9;" horiz-adv-x="1079" 
d="M0 896v0v0zM808 362q-16 3 -21 10t-2 12l3 6q1 1 2.5 3t4.5 9.5t5 14.5t3 18t-0.5 20t-6.5 20.5t-14 20.5q-16 15 -41 19.5t-50 0.5t-47.5 -10t-36.5 -11l-15 -7q-11 -3 -18.5 -4.5t-11 0.5t-6 3.5t-1.5 7.5q0 7 1 11q0 4 3 14q2 9 3 15q0 13 -1.5 25t-7.5 26.5t-16.5 23
t-26.5 14.5t-41.5 3.5t-58.5 -13.5q-39 -13 -79 -39.5t-69.5 -55t-54 -55t-38.5 -43.5l-12 -18q-37 -48 -54.5 -96t-16.5 -72v-24q6 -53 32.5 -95.5t62.5 -68.5t85.5 -44.5t94.5 -27t95 -11.5q83 -7 171.5 12.5t165 67.5t107.5 115q19 39 19.5 73.5t-12 56.5t-32 38.5
t-36.5 24.5t-31 10v0zM468 15q-120 -5 -204 47t-84 133q0 79 83.5 136.5t205 63t205 -40.5t83.5 -125q0 -80 -85 -144t-204 -70v0zM436 324q-32 -3 -58 -15t-40.5 -27t-24.5 -32t-14 -34t-5 -31t-1 -22l1 -8v-5q0 -3 2.5 -13t6.5 -18.5t12.5 -18.5t21.5 -17
q73 -36 136.5 -22t102.5 65q16 18 21 46t-2 56.5t-25 52t-53 36.5t-81 7v0zM396 113q-7 -1 -13 -0.5t-11 2.5l-10 4t-8.5 6t-6 8t-4.5 9t-2 10q0 13 7 24.5t18.5 20t26.5 9.5q10 1 19.5 -0.5t16 -5.5t11.5 -9t7 -12t2 -14q0 -13 -7 -24t-19.5 -19t-26.5 -9v0zM491 194
q-8 -6 -16.5 -5.5t-11.5 7.5l-3 4q-1 2 -1 5v4q0 3 1 6l3 4q1 2 3 3l3 5q9 7 17.5 5.5t11.5 -8.5q4 -5 3.5 -10.5t-3.5 -10.5t-7 -10v1zM886 427q7 0 12.5 3t9 8t4.5 11q1 1 1 3q14 127 -89 145q-30 6 -56 1q-8 0 -13.5 -3.5t-9.5 -10t-4 -12.5q0 -12 8 -19.5t19 -7.5
q87 20 94 -56q2 -19 -2 -36q0 -11 7.5 -18.5t18.5 -7.5v0zM868 741q-50 11 -132 -4q-1 0 -2 -2l-1 -2l-2 -1q-12 -3 -19.5 -13.5t-7.5 -23.5q0 -16 11 -27.5t26 -11.5h4q1 0 5 1t8.5 2t9.5 2.5t9 3t15 1.5t27 -1.5t35.5 -8t39 -17t39 -28t34.5 -41.5q29 -65 11 -127
q0 -1 -0.5 -2t-1.5 -6q-1 -4 -2.5 -8t-2.5 -10t-1 -11q0 -10 5.5 -16.5t14 -9.5t19.5 -3q31 0 37 38q13 44 15 83.5t-5.5 69.5t-22 56.5t-33.5 44.5t-42.5 33.5t-45 24t-45.5 14.5h1v0z" />
    <glyph glyph-name="liulan1" unicode="&#xe65f;" 
d="M512 591q-55 0 -109 -25.5t-90.5 -60t-59.5 -68.5t-23 -53t23 -53t59.5 -68.5t90.5 -60t109 -25.5t109 25.5t90.5 60t59.5 68.5t23 53t-23 53t-59.5 68.5t-90.5 60t-109 25.5zM445 502q28 32 67 32t67 -32q30 -34 30 -83.5t-30 -83.5q-28 -32 -67 -32t-67 32
q-30 34 -30 83.5t30 83.5zM680 290q-37 -33 -78 -51q-46 -21 -90 -21t-90 21q-41 18 -78 51q-33 28 -54 59q-16 23 -19 35q3 12 19 35q21 31 54 59q31 28 65 45q-35 -44 -35 -105q0 -65 40.5 -110.5t97.5 -45.5t97.5 45.5t40.5 110.5q0 61 -35 105q34 -17 65 -45
q33 -28 54 -59q16 -23 19 -35q-3 -12 -19 -35q-21 -31 -54 -59z" />
    <glyph glyph-name="dashuju" unicode="&#xe68e;" 
d="M512 815q-118 0 -218 -58t-158 -158t-58 -218t58 -218t158 -158t218 -58t218 58t158 158t58 218t-58 218t-158 158t-218 58v0v0zM513 -16q-107 0 -198 53t-144 144t-53 198.5t53 198.5t144 144t198.5 53t198.5 -53t144 -144t53 -198.5t-53 -198.5t-144 -144t-199 -53v0v0
zM770 341q-3 0 -7 -1l-110 174q17 20 17 45q0 28 -19.5 47.5t-47.5 19.5t-47.5 -19.5t-19.5 -47.5q0 -33 26 -53l-123 -231q-9 2 -17 2q-17 0 -31 -7l-102 120q9 13 9 28q0 21 -15 35.5t-35.5 14.5t-35.5 -14.5t-15 -35.5t15 -35.5t35 -14.5q8 0 15 2l104 -123
q-11 -16 -11 -37q0 -28 19.5 -47.5t47.5 -19.5t47.5 19.5t19.5 47.5q0 29 -21 48l125 235q5 -1 10 -1q11 0 22 4l108 -172q-13 -14 -13 -33q0 -21 15 -36t35.5 -15t35.5 15t15 36t-15 35.5t-36 14.5v0z" />
    <glyph glyph-name="pinglun" unicode="&#xe610;" 
d="M810 189h-417l-117 -118v118h-60q-25 0 -42 17t-17 42v385q0 25 17 42.5t42 17.5h594q25 0 42 -17.5t17 -42.5v-385q0 -25 -17 -42t-42 -17zM840 633q0 13 -9 21.5t-21 8.5h-594q-12 0 -21 -8.5t-9 -21.5v-385q0 -12 9 -21t21 -9h89v-75l67 66l9 9h429q12 0 21 9t9 21
v385zM513 411q-12 0 -21 8.5t-9 21t9 21t21 8.5t21 -8.5t9 -21t-9 -21t-21 -8.5zM394.5 411q-12.5 0 -21 8.5t-8.5 21t8.5 21t21 8.5t21 -8.5t8.5 -21t-8.5 -21t-21 -8.5zM629 411q-12 0 -21 8.5t-9 21t9 21t21 8.5t21 -8.5t9 -21t-9 -21t-21 -8.5z" />
    <glyph glyph-name="wenzhang" unicode="&#xe616;" 
d="M793 -29h-552q-30 0 -52 21.5t-22 52.5v678q0 31 22 52.5t52 21.5h433l192 -192v-560q0 -31 -21.5 -52.5t-51.5 -21.5zM241 751q-11 0 -19 -8t-8 -20v-678q0 -12 8 -20t19 -8h552q11 0 19 8t8 20v541l-166 166h-413v-1zM843 572h-145q-24 0 -40.5 16.5t-16.5 40.5v145h46
v-145q0 -4 3.5 -7.5t7.5 -3.5h145v-46zM544 516h-198q-10 0 -16.5 7t-6.5 16.5t6.5 16t16.5 6.5h198q9 0 16 -6.5t7 -16t-7 -16.5t-16 -7zM688 355h-342q-10 0 -16.5 6.5t-6.5 16t6.5 16.5t16.5 7h342q9 0 16 -7t7 -16.5t-7 -16t-16 -6.5zM688 199h-342q-10 0 -16.5 6.5
t-6.5 16t6.5 16.5t16.5 7h342q9 0 16 -7t7 -16.5t-7 -16t-16 -6.5z" />
    <glyph glyph-name="web-icon-" unicode="&#xe6b7;" 
d="M557 290h-1q-23 0 -52 12t-46 28q-5 6 -5 14t5.5 13.5t13.5 5.5t13 -6q12 -12 33 -20.5t38.5 -8.5t38.5 8.5t33 20.5l137 137q12 12 20.5 33t8.5 38.5t-8.5 38.5t-20.5 33t-33 20.5t-38.5 8.5t-38.5 -8.5t-33 -20.5l-115 -116q-6 -5 -14 -5t-13.5 5.5t-5.5 13t6 13.5
l115 115q17 17 46 29t52.5 12t52.5 -12t45.5 -28.5t28.5 -45.5t12 -52.5t-12 -52.5t-29 -46l-136 -137q-17 -16 -46 -28t-52 -12h-1h1zM331 64h-1q-23 0 -52 12t-45.5 28.5t-28.5 45.5t-12 52.5t12 52.5t29 46l136 137q17 16 46 28t52.5 12t52.5 -12t46 -28q5 -6 5 -14
t-5.5 -13.5t-13.5 -5.5t-13 6q-12 12 -33 20.5t-38.5 8.5t-38.5 -8.5t-33 -20.5l-137 -137q-12 -12 -20.5 -33t-8.5 -38.5t8.5 -38.5t20.5 -33t33 -20.5t38.5 -8.5t38.5 8.5t33 20.5l116 116q5 5 13 5t13.5 -5.5t5.5 -13t-6 -13.5l-115 -115q-17 -17 -45.5 -29t-52.5 -12v0
v0z" />
    <glyph glyph-name="yunjisuan" unicode="&#xe679;" 
d="M534 21h-261q-77 0 -132 55t-55 132.5t55 132.5t132 55h43q13 0 22 10t8 23q-2 14 -2 28q0 121 85.5 206t205.5 85q69 0 131 -31q24 -12 53.5 -36t46.5 -46q7 -10 19.5 -11.5t22 6t11 20t-5.5 21.5q-50 64 -121 100q-74 37 -157 37q-145 0 -247 -103q-103 -103 -103 -248
v-2h-12q-102 0 -174 -72.5t-72 -174t72.5 -174t173.5 -72.5h261v0q12 0 20.5 8.5t8.5 21.5v0v0q0 12 -8.5 20.5t-20.5 8.5zM371 397v-159h622v159h-622zM951 291h-58v55h58v-55zM371 207v-158h622v158h-622zM951 102h-58v54h58v-54z" />
  </font>
</defs>
</svg>
